PathFileType	3	(X/Y/Z)	D:\minhoCalibration\240510\subject2_KPNP\preferred\preferred01.trc
DataRate	CameraRate	NumFrames	NumMarkers	Units	OrigDataRate	OrigDataStartFrame	OrigNumFrames
200.0	200.0	36	10	mm	200.0	507	233	
Frame#	Time	Left_Ankle_Outer1			Left_Ankle_Inner1			Left_Knee_Outer1			Left_Knee_Inner1			Left_Wrist1			Right_Wrist1			Right_Knee_Inner1			Right_Knee_Outer1			Right_Ankle_Inner1			Right_Ankle_Outer1			
		X1	Y1	Z1	X2	Y2	Z2	X3	Y3	Z3	X4	Y4	Z4	X5	Y5	Z5	X6	Y6	Z6	X7	Y7	Z7	X8	Y8	Z8	X9	Y9	Z9	X10	Y10	Z10	
507	2.525	-414.9108	102.3848	-838.25043	-438.36749	98.968407	-788.09729	-245.83739	517.01343	-739.58246	-317.96201	491.58957	-677.43286	-284.90228	1009.2703	-768.30603	-616.74036	997.18127	-693.23419	-513.11017	496.34302	-675.58258	-600.94739	516.68817	-675.849	-523.07593	99.704185	-764.70703	-619.93365	103.50317	-755.44177
508	2.53	-415.16733	101.78318	-839.54999	-439.25821	99.661926	-786.30066	-247.38577	516.8009	-740.84241	-319.69257	491.42639	-678.6994	-285.58948	1009.4646	-768.93378	-617.59613	996.86743	-694.59088	-513.67096	496.05704	-676.96533	-601.53741	516.36456	-677.68945	-523.50769	99.105919	-764.65356	-620.00464	103.03621	-755.7085
509	2.535	-415.17902	101.07936	-840.63593	-438.92664	97.2397	-790.6507	-248.39757	516.68799	-742.04083	-321.17654	491.14334	-680.28394	-286.30978	1009.5048	-769.64386	-618.19531	995.93781	-696.01379	-514.20923	495.73087	-678.19183	-602.46466	516.09833	-678.8147	-523.44763	98.296059	-764.36615	-620.09448	102.5069	-756.06049
510	2.54	-415.18085	100.20519	-841.83276	-439.03336	98.892242	-788.32605	-249.70682	516.37842	-743.33301	-322.60062	490.78091	-681.84534	-286.94189	1009.4033	-770.40594	-619.16431	994.97272	-698.59631	-514.84442	495.41251	-679.52148	-602.70941	515.59833	-681.01215	-523.58289	97.804764	-764.48938	-620.26575	102.06369	-756.25354
511	2.545	-415.14542	99.463135	-843.19696	-437.74585	95.923187	-794.68872	-250.45364	516.08093	-744.59161	-324.03107	490.06622	-684.39874	-287.62323	1009.156	-771.13885	-619.84497	994.41504	-701.0423	-515.8075	495.06644	-680.6358	-603.21783	515.11615	-682.7113	-523.7774	97.422066	-764.5611	-620.52435	101.58038	-756.58508
512	2.55	-414.86945	98.440323	-844.26935	-439.02368	96.12767	-793.88708	-251.47444	515.59741	-745.79236	-325.28653	489.83286	-684.99365	-288.31216	1008.8433	-771.92261	-619.36969	993.22614	-699.54614	-516.354	494.78458	-682.0415	-603.74109	514.72961	-684.3432	-524.60004	96.864357	-765.24664	-620.75385	101.02439	-756.95929
513	2.555	-414.9249	97.855576	-845.94092	-439.47412	96.905006	-792.7298	-252.30637	515.09039	-747.01398	-326.38806	489.05115	-687.39471	-288.78973	1008.4781	-772.82074	-616.61401	993.38983	-696.40729	-516.91913	494.56229	-683.42511	-604.44684	514.58405	-685.77179	-524.32043	96.523827	-764.92133	-620.97137	100.6724	-757.14398
514	2.56	-414.84357	97.027184	-847.33997	-438.47629	94.616577	-798.50104	-252.41939	514.77942	-748.27728	-327.29861	488.7272	-688.05981	-289.55161	1007.9315	-773.58295	-616.74384	992.96191	-700.2113	-517.58984	494.39194	-684.87146	-605.51233	514.27704	-686.68384	-524.40521	96.166367	-765.72968	-621.23486	100.23315	-757.34076
515	2.565	-414.71274	96.397232	-848.6748	-438.76901	94.260345	-799.57343	-252.54718	514.35669	-749.48444	-327.9939	488.064	-689.61536	-290.12308	1007.4024	-774.505	-621.85968	991.05042	-704.93378	-518.11279	494.28888	-686.43005	-606.17194	514.24347	-688.11572	-524.83185	95.981354	-765.36292	-621.42798	99.96431	-757.58185
516	2.57	-414.59641	95.751869	-850.01611	-439.10791	95.794022	-797.61108	-252.53171	513.98102	-750.64716	-328.75769	487.59015	-690.69348	-290.69128	1006.948	-775.38226	-621.54797	990.33203	-705.1333	-518.70654	494.16119	-687.72467	-606.59137	513.94366	-690.18396	-525.10925	95.723465	-764.92737	-621.64319	99.599266	-757.80798
517	2.575	-414.48486	95.231384	-851.15869	-439.18845	93.941078	-801.52856	-252.29913	513.73346	-751.81635	-329.07877	486.9967	-692.03735	-291.17374	1006.4429	-776.35938	-622.49115	989.25287	-707.5899	-519.38068	494.07904	-689.17706	-606.77222	513.65521	-692.44623	-525.14026	95.566925	-766.10864	-621.86017	99.273788	-758.08649
518	2.58	-414.47787	94.788551	-852.27521	-438.70474	93.67038	-803.55267	-252.09406	513.37897	-752.8916	-329.01187	486.22879	-694.30225	-291.75394	1005.8944	-777.36969	-623.59253	988.36481	-707.15051	-519.65833	494.13531	-690.92487	-607.94519	513.76141	-693.35883	-525.48352	95.255127	-765.72955	-622.00684	99.027939	-758.34155
519	2.585	-414.44046	94.504799	-853.21826	-439.25049	94.945312	-802.0365	-251.48558	513.18274	-754.08752	-329.13919	486.07416	-694.20654	-292.33148	1005.235	-778.37817	-623.80713	988.32343	-708.47321	-520.57867	494.069	-692.02887	-608.43335	513.4519	-695.50293	-526.0401	94.93911	-765.31873	-622.1817	98.737457	-758.65955
520	2.59	-414.38394	94.227531	-853.98505	-439.66086	94.703033	-802.69391	-250.90018	512.96069	-755.11115	-328.67383	485.51288	-695.60077	-292.84103	1004.7765	-779.41168	-624.06696	987.88831	-707.99884	-521.15613	493.99118	-693.48492	-608.97217	513.32001	-697.11493	-526.565	94.279961	-765.51361	-622.44489	98.37471	-758.92932
521	2.595	-414.42712	94.080185	-854.58392	-439.41986	94.215782	-804.55536	-249.97528	512.95367	-756.27423	-328.01334	485.16428	-696.68463	-293.46561	1004.274	-780.40424	-624.60345	986.89258	-711.39136	-521.62042	493.95258	-695.08875	-609.58844	513.31635	-698.54962	-526.36475	94.527786	-765.79089	-622.55603	98.129433	-759.14215
522	2.6	-414.45084	94.034149	-855.11841	-439.32639	93.605812	-806.50702	-248.88147	512.98785	-757.46167	-327.1796	484.92743	-697.52313	-294.02264	1003.8551	-781.44983	-625.42059	987.18341	-710.90387	-522.05927	493.8663	-696.67938	-610.18408	513.20984	-700.29187	-526.38916	94.374107	-766.38135	-622.72754	97.859459	-759.30304
523	2.605	-414.38336	93.991005	-855.60345	-439.67319	94.082466	-805.52191	-247.67471	513.04449	-758.63147	-326.11499	484.74231	-698.40051	-294.68771	1003.3784	-782.45697	-625.56354	986.55371	-713.7868	-522.52521	493.793	-698.2464	-610.61267	512.89081	-702.12616	-527.00256	93.807526	-766.26605	-623.01001	97.564323	-759.5589
524	2.61	-414.39404	94.108177	-856.01453	-439.78357	94.785881	-804.99829	-246.42897	513.15967	-759.74139	-324.78607	484.42746	-700.0202	-295.34247	1003.086	-783.51849	-626.2793	986.3324	-714.57953	-522.91589	493.7092	-699.9798	-610.53418	512.68298	-704.47003	-527.42371	93.778496	-766.00818	-623.29694	97.277397	-759.75726
525	2.615	-414.39645	94.271065	-856.31952	-439.59216	94.825386	-805.56122	-245.53966	513.1347	-760.7196	-323.56509	484.7778	-699.62567	-296.00012	1002.7849	-784.58264	-627.09326	986.40039	-715.20178	-523.28839	493.65918	-701.74664	-611.32489	512.37677	-705.56189	-527.56152	93.661018	-766.58722	-623.42609	96.404625	-761.39197
526	2.62	-414.22586	94.409103	-856.57281	-439.96393	94.67907	-805.84375	-244.09796	513.41266	-761.91589	-321.97226	484.68637	-700.33105	-296.65988	1002.542	-785.72748	-627.99078	986.69922	-714.79199	-523.68958	493.57306	-703.59015	-611.78662	512.32239	-706.73792	-527.91486	93.223976	-767.09113	-623.83209	96.770515	-760.36365
527	2.625	-414.06161	94.570518	-856.73047	-439.62613	94.90316	-806.35364	-242.84839	513.54144	-762.96033	-320.53558	484.87302	-700.67755	-297.28482	1002.4278	-786.81482	-628.04114	986.21698	-717.41852	-523.95453	493.48508	-705.33765	-611.70349	512.01245	-708.99011	-528.01294	93.402382	-767.15204	-624.29315	95.962448	-760.89557
528	2.63	-413.87332	94.855301	-856.97382	-439.1593	95.782959	-806.2016	-241.75047	513.79901	-763.92981	-318.89755	485.12872	-701.11652	-297.89426	1002.2657	-787.96899	-628.7063	986.22437	-718.19708	-524.27875	493.45209	-707.19794	-612.55133	511.97101	-709.6153	-528.56262	93.027603	-767.25525	-624.32904	96.171135	-760.92273
529	2.635	-413.66174	95.181778	-857.29364	-438.9122	96.143356	-806.34808	-240.58163	514.08185	-764.82025	-317.42752	485.66193	-701.37866	-298.57556	1002.2151	-789.09625	-629.56812	986.62183	-717.56549	-524.59082	493.40887	-708.88763	-612.49237	511.65533	-711.84802	-528.56506	93.062782	-767.81317	-624.58539	95.918175	-761.19757
530	2.64	-413.58716	95.631683	-857.67725	-438.47986	96.602097	-806.59357	-239.56522	514.32611	-765.68103	-315.91919	485.77246	-701.72308	-299.25168	1002.1714	-790.20465	-630.15186	986.59399	-718.59399	-524.94	493.39188	-710.58508	-613.2514	511.63559	-712.72858	-528.42938	93.174339	-768.27087	-624.78906	95.822693	-761.35242
531	2.645	-413.28738	95.984917	-857.95941	-438.38394	96.663536	-807.19958	-239.03506	514.34277	-766.41577	-314.50009	486.16135	-701.98834	-299.92365	1002.1448	-791.32025	-630.71472	986.57794	-719.54785	-525.22748	493.33264	-712.24017	-613.74976	511.60144	-714.01947	-529.31592	92.546593	-768.36084	-624.31744	95.402359	-763.42413
532	2.65	-413.12845	96.60305	-858.4364	-437.85931	97.380432	-807.47241	-237.91095	514.81476	-767.08746	-313.27814	486.52145	-702.20587	-300.51654	1002.233	-792.4447	-631.24994	986.44116	-720.62421	-525.56598	493.29514	-713.90149	-613.95917	511.42853	-715.83948	-529.00818	92.95153	-768.88733	-625.36053	95.486687	-762.09253
533	2.655	-412.84534	97.376793	-859.00244	-437.61859	97.71936	-807.93256	-237.24866	514.89929	-767.59619	-312.19559	486.84503	-702.41034	-301.11984	1002.3385	-793.59973	-631.81433	986.37115	-721.61713	-525.9566	493.28268	-715.27356	-614.1571	511.27051	-717.52765	-529.01886	92.722137	-769.73138	-625.70227	95.265404	-762.47833
534	2.66	-412.44537	98.046669	-859.66901	-437.75174	97.888229	-808.43872	-236.53654	515.2666	-768.17932	-311.18594	487.12192	-702.70978	-301.65372	1002.376	-794.69586	-632.4494	986.29114	-722.51892	-526.37262	493.22549	-716.7395	-614.59381	511.1713	-718.72986	-529.11572	92.637581	-770.60693	-625.88843	95.115257	-762.80536
535	2.665	-411.96472	98.483582	-860.58405	-437.23749	98.67083	-809.10638	-236.0217	515.56708	-768.52112	-310.39365	487.43289	-702.90015	-302.22003	1002.4335	-795.72644	-632.90015	986.22113	-723.63867	-526.66333	493.13846	-718.05322	-615.01636	511.08725	-719.914	-530.06268	92.185814	-769.7276	-626.05756	94.92939	-763.16351
536	2.67	-411.2991	98.676346	-861.2392	-436.86499	98.813988	-810.82764	-235.57269	515.81921	-768.72461	-309.79694	487.66351	-703.07129	-302.67523	1002.5762	-796.80817	-633.14264	985.88464	-725.22504	-527.06342	493.08609	-719.35461	-615.80634	510.9054	-720.48499	-529.60651	92.578232	-770.84515	-626.35101	94.802612	-763.58984
537	2.675	-411.0206	99.382446	-862.72021	-436.98633	99.119728	-812.41998	-235.15472	516.05841	-768.89215	-309.37524	487.95328	-703.17206	-303.17151	1002.7167	-797.80231	-633.91132	985.88434	-726.30774	-527.42621	493.05426	-720.62604	-616.1452	510.87152	-721.43964	-530.69177	92.207802	-770.40039	-626.59949	94.663147	-763.75549
538	2.68	-410.58795	99.960419	-864.03601	-435.67459	100.3579	-814.17694	-234.68533	516.50085	-768.90222	-309.1619	488.17999	-703.35077	-303.6528	1002.8831	-798.69562	-634.62762	985.65515	-726.92517	-527.76721	492.98859	-721.70825	-616.59918	510.89209	-722.20007	-530.76477	92.299568	-770.81384	-626.79858	94.566345	-763.97418
539	2.685	-409.9563	100.36732	-865.23169	-435.91373	100.44149	-815.53052	-234.53569	516.76593	-768.78601	-309.04608	488.40195	-703.53088	-304.12656	1003.0521	-799.54907	-635.15656	985.5296	-728.13684	-527.66901	493.01474	-723.05847	-616.45886	510.67673	-723.88177	-530.71716	92.697983	-770.94397	-626.95361	94.444115	-764.15216
540	2.69	-409.61029	101.06139	-867.12695	-436.19589	100.45825	-817.49115	-234.36336	517.08917	-768.63135	-309.15134	488.65158	-703.64508	-304.54532	1003.2701	-800.32867	-635.89465	985.30768	-729.32129	-528.31317	492.99817	-723.76141	-616.73499	510.51767	-724.82135	-530.45563	92.754044	-772.08868	-627.17139	93.737473	-765.47949
541	2.695	-408.96161	101.47692	-868.66577	-436.18436	101.08152	-819.13037	-234.32712	517.32538	-768.45514	-309.21719	488.76532	-703.93671	-304.93408	1003.4291	-801.078	-636.2973	985.1745	-730.65277	-528.59943	492.98541	-724.58667	-617.48712	510.526	-724.92908	-531.18555	92.518967	-771.77386	-627.37097	93.626106	-765.6106
542	2.7	-408.60526	102.22319	-870.90485	-436.41595	101.64523	-820.70471	-234.23799	517.60455	-768.24939	-309.59766	488.98291	-704.08423	-305.27386	1003.7078	-801.72241	-636.87457	985.04865	-731.81287	-528.82074	493.03192	-725.48083	-617.69519	510.4946	-725.771	-531.40656	92.388603	-771.99829	-627.64008	94.103584	-764.90869
